<svg xmlns="http://www.w3.org/2000/svg" width="82.464" height="52.236" viewBox="0 0 82.464 52.236">
  <path id="logo_effy" d="M311.91,297.666l4.67-5.121a10.243,10.243,0,0,0,7.02,2.668,10.653,10.653,0,0,0,10.646-10.458v-1.915c-1.555,2.044-3.809,2.921-6.811,2.921-3.335,0-8.849-2.007-8.849-9.812V270.6h-5.67v14.493H306V270.6H299.44v14.5h-6.918V270.6h-21.9v-6.17l1.549-.011c3.83,0,8.586-1.517,8.586-4.384,0-2.313-2.189-3.19-4.551-3.19a10.692,10.692,0,1,0,7.564,18.355l4.9,4.9a17.624,17.624,0,1,1-12.508-30.2c7.494,0,11.362,5.084,11.362,9.231a6.038,6.038,0,0,1-3.013,5.277v.011l8-.005s.038-4.347.038-4.476c.1-3.093,1.022-5.487,2.744-7.117,1.759-1.668,4.325-2.512,7.623-2.512.328,0,.672.011,1.017.027v6.628c-.21-.016-.414-.022-.613-.022-2.34,0-3.631,1-3.836,2.97-.016.14-.059,4.508-.059,4.508h6.558v-3.938c0-3.265.877-5.8,2.6-7.526,1.759-1.765,4.379-2.658,7.774-2.658.328,0,.672.011,1.017.027v6.628c-.21-.016-.414-.021-.613-.021-2.566,0-3.863,1.194-3.863,3.551v3.938l12.588-.005v10.479c0,2.792,1.662,4.53,4.336,4.53a4.181,4.181,0,0,0,4.4-3.233l.005-.022v-11.76h6.929v20.179a17.552,17.552,0,0,1-29.254,13.078Z" transform="translate(-258.7 -249.9)" fill="#003250"/>
</svg>